<?xml version="1.0" encoding="UTF-8" standalone="no"?>
<svg
   xmlns:dc="http://purl.org/dc/elements/1.1/"
   xmlns:cc="http://creativecommons.org/ns#"
   xmlns:rdf="http://www.w3.org/1999/02/22-rdf-syntax-ns#"
   xmlns:svg="http://www.w3.org/2000/svg"
   xmlns="http://www.w3.org/2000/svg"
   xmlns:sodipodi="http://sodipodi.sourceforge.net/DTD/sodipodi-0.dtd"
   xmlns:inkscape="http://www.inkscape.org/namespaces/inkscape"
   viewBox="0 0 121.49600000000001 53"
   width="121.49600000000001"
   height="53"
   version="1.1"
   id="svg803"
   sodipodi:docname="logo.svg"
   inkscape:version="1.0.1 (3bc2e813f5, 2020-09-07)">
  <metadata
     id="metadata809">
    <rdf:RDF>
      <cc:Work
         rdf:about="">
        <dc:format>image/svg+xml</dc:format>
        <dc:type
           rdf:resource="http://purl.org/dc/dcmitype/StillImage" />
      </cc:Work>
    </rdf:RDF>
  </metadata>
  <defs
     id="defs807" />
  <sodipodi:namedview
     pagecolor="#ffffff"
     bordercolor="#666666"
     borderopacity="1"
     objecttolerance="10"
     gridtolerance="10"
     guidetolerance="10"
     inkscape:pageopacity="0"
     inkscape:pageshadow="2"
     inkscape:window-width="1916"
     inkscape:window-height="1031"
     id="namedview805"
     showgrid="false"
     inkscape:zoom="6.1580177"
     inkscape:cx="60.748001"
     inkscape:cy="26.5"
     inkscape:window-x="0"
     inkscape:window-y="47"
     inkscape:window-maximized="0"
     inkscape:current-layer="svg795" />
  <rect
     fill="none"
     stroke="#000000"
     stroke-width="3"
     width="118.49600000000001"
     height="50"
     x="1.5"
     y="1.5"
     id="rect679" />
  <g
     fill="#000000"
     color="#000000"
     transform="translate(12, 12.001) scale(0.29)"
     id="g797">
    <svg
       width="100.0"
       height="100.0"
       x="0.0"
       y="0.0"
       viewBox="0 0 100 100"
       version="1.1"
       id="svg795">
      <g
         id="g793">
        <path
           d="M82,44c-4.188,0-7.696,2.863-8.701,6.736l-7.502-0.228c-0.503-3.419-2.019-6.501-4.24-8.94l9.479-13.356   C71.91,28.711,72.921,29,74,29c3.313,0,6-2.686,6-6s-2.687-6-6-6s-6,2.686-6,6c0,1.5,0.554,2.868,1.464,3.919l-11.361,11.74   C55.469,36.984,52.353,36,49,36c-3.589,0-6.914,1.119-9.658,3.018l-8.125-7.812C31.715,30.245,32,29.157,32,28c0-3.866-3.134-7-7-7   s-7,3.134-7,7s3.134,7,7,7c1.059,0,2.059-0.242,2.959-0.663l7.491,8.427C33.294,45.614,32,49.151,32,53   c0,2.512,0.559,4.888,1.537,7.034l-8.97,5.437C22.809,63.937,20.516,63,18,63c-5.523,0-10,4.477-10,10s4.477,10,10,10   s10-4.477,10-10c0-1.075-0.174-2.109-0.488-3.08l8.325-6.167C38.954,67.564,43.692,70,49,70c8.54,0,15.589-6.305,16.797-14.509   l7.502-0.228C74.304,59.137,77.812,62,82,62c4.971,0,9-4.029,9-9S86.971,44,82,44z"
           id="path791" />
      </g>
    </svg>
  </g>
  <line
     x1="51.5"
     y1="0"
     x2="51.5"
     y2="100%"
     stroke="#000000"
     stroke-width="3"
     id="line799" />
  <path
     fill="#000000"
     fill-rule="nonzero"
     d="M12.84 12.19L12.84 12.19Q12.84 14.62 11.06 16.00Q9.29 17.38 6.53 17.38L6.53 17.38Q4.34 17.38 2.30 16.18L2.30 16.18Q1.30 15.55 0.65 14.41Q0 13.27 0 11.81L0 11.81L3.02 11.66Q3.02 12.96 4.13 13.68Q5.23 14.40 6.58 14.40L6.58 14.40Q9.58 14.40 9.58 12.29L9.58 12.29Q9.58 10.56 7.54 10.25L7.54 10.25L4.75 9.96Q2.66 9.65 1.44 8.47Q0.22 7.30 0.22 5.09Q0.22 2.88 1.97 1.44Q3.72 0 6.40 0Q9.07 0 10.70 1.36Q12.34 2.71 12.34 4.85L12.34 4.85L9.36 4.99Q8.95 2.90 6.55 2.90L6.55 2.90Q5.09 2.90 4.26 3.53Q3.43 4.15 3.43 5.00Q3.43 5.86 4.03 6.35Q4.63 6.84 5.52 6.96L5.52 6.96L8.26 7.25Q12.84 7.87 12.84 12.19ZM23.54 0.14L27.17 0.14L22.03 10.22L22.03 17.23L18.72 17.23L18.72 10.22L13.58 0.14L17.21 0.14L20.40 7.03L23.54 0.14ZM40.02 1.62Q41.50 3.10 41.50 5.95Q41.50 8.81 40.02 10.28Q38.54 11.76 35.86 11.76L35.86 11.76L32.57 11.76L32.57 17.23L29.23 17.23L29.23 0.14L35.86 0.14Q38.54 0.14 40.02 1.62ZM38.16 5.95L38.16 5.95Q38.16 3.12 35.69 3.12L35.69 3.12L32.57 3.12L32.57 8.76L35.69 8.76Q36.89 8.76 37.52 8.11Q38.16 7.46 38.16 5.95Z"
     transform="translate(65 17.812)"
     id="path801" />
</svg>
